<svg width="128" height="128" viewBox="0 0 128 128" fill="none" xmlns="http://www.w3.org/2000/svg">
<path d="M0 4C0 1.79086 1.79086 0 4 0H124C126.209 0 128 1.79086 128 4V124C128 126.209 126.209 128 124 128H4C1.79086 128 0 126.209 0 124V4Z" fill="#17C4B9"/>
<path d="M35.2296 89.8797V86.7531L41.0874 86.2859V41.0766H26.389L25.9218 49.0547H22.3999V37.5547H64.0515V49.0547H60.5655L60.0624 41.0766H45.3999V86.2859L51.2577 86.7531V89.8797H35.2296Z" fill="white"/>
<path d="M88.2374 90.6344C85.2426 90.6344 82.2478 90.1792 79.253 89.2687C76.2822 88.3583 73.4072 86.9448 70.628 85.0281V74.8937H74.2218L74.7608 83.0516C76.8692 84.3693 79.0614 85.3516 81.3374 85.9984C83.6134 86.6453 85.9134 86.9687 88.2374 86.9687C90.9926 86.9687 93.3885 86.5495 95.4249 85.7109C97.4853 84.8484 99.0786 83.6625 100.205 82.1531C101.355 80.6198 101.93 78.8588 101.93 76.8703C101.93 74.9536 101.462 73.2766 100.528 71.8391C99.6176 70.3776 98.1202 69.0958 96.0358 67.9937C93.9754 66.8917 91.1723 65.8854 87.6265 64.975C83.8171 63.9927 80.7025 62.8427 78.2827 61.525C75.8869 60.2073 74.114 58.626 72.964 56.7812C71.8379 54.9125 71.2749 52.6963 71.2749 50.1328C71.2749 47.5213 71.9697 45.2213 73.3593 43.2328C74.7489 41.2203 76.6895 39.651 79.1812 38.525C81.6968 37.375 84.6197 36.8 87.9499 36.8C91.4718 36.8 94.6103 37.3271 97.3655 38.3812C100.145 39.4354 102.493 40.7891 104.409 42.4422V51.7859H100.851L100.312 44.3828C98.803 43.1609 97.0181 42.2026 94.9577 41.5078C92.8973 40.813 90.5614 40.4656 87.9499 40.4656C85.3864 40.4656 83.1822 40.8969 81.3374 41.7594C79.4926 42.5979 78.0671 43.7359 77.0608 45.1734C76.0786 46.6109 75.5874 48.2401 75.5874 50.0609C75.5874 51.8099 75.9827 53.3552 76.7733 54.6969C77.564 56.0146 78.9296 57.1885 80.8702 58.2187C82.8108 59.225 85.5301 60.1953 89.028 61.1297C94.7062 62.5911 98.9947 64.5677 101.894 67.0594C104.793 69.5271 106.242 72.7734 106.242 76.7984C106.242 79.5776 105.475 82.0094 103.942 84.0937C102.433 86.1542 100.324 87.7594 97.6171 88.9094C94.9098 90.0594 91.7832 90.6344 88.2374 90.6344Z" fill="white"/>
</svg>
