<svg width="1079" height="986" viewBox="0 0 1079 986" fill="none" xmlns="http://www.w3.org/2000/svg">
<path fill-rule="evenodd" clip-rule="evenodd" d="M40.6223 986L55.412 944.917C70.2016 903.833 99.781 821.667 89.9212 739.5C80.0614 657.333 30.7625 575.167 11.0429 493C-8.67663 410.833 1.18315 328.667 15.9728 246.5C30.7625 164.333 50.482 82.1667 60.3418 41.0834L70.2016 5.79665e-05L1079 1.38706e-05L1079 41.0833C1079 82.1667 1079 164.333 1079 246.5C1079 328.667 1079 410.833 1079 493C1079 575.167 1079 657.333 1079 739.5C1079 821.667 1079 903.833 1079 944.917L1079 986L40.6223 986Z" fill="#17C3B9" fill-opacity="0.1"/>
</svg>
