<svg width="1111" height="982" viewBox="0 0 1111 982" fill="none" xmlns="http://www.w3.org/2000/svg">
<g filter="url(#filter0_d_20_34)">
<path fill-rule="evenodd" clip-rule="evenodd" d="M72.6223 984L87.412 942.917C102.202 901.833 131.781 819.667 121.921 737.5C112.061 655.333 62.7625 573.167 43.0429 491C23.3234 408.833 33.1831 326.667 47.9728 244.5C62.7625 162.333 82.482 80.1667 92.3418 39.0834L102.202 -1.99994L1111 -1.99999L1111 39.0833C1111 80.1666 1111 162.333 1111 244.5C1111 326.667 1111 408.833 1111 491C1111 573.167 1111 655.333 1111 737.5C1111 819.667 1111 901.833 1111 942.917L1111 984L72.6223 984Z" fill="#17C3B9" fill-opacity="0.1" shape-rendering="crispEdges"/>
</g>
<defs>
<filter id="filter0_d_20_34" x="0" y="-32" width="1139" height="1046" filterUnits="userSpaceOnUse" color-interpolation-filters="sRGB">
<feFlood flood-opacity="0" result="BackgroundImageFix"/>
<feColorMatrix in="SourceAlpha" type="matrix" values="0 0 0 0 0 0 0 0 0 0 0 0 0 0 0 0 0 0 127 0" result="hardAlpha"/>
<feOffset dx="-2"/>
<feGaussianBlur stdDeviation="15"/>
<feComposite in2="hardAlpha" operator="out"/>
<feColorMatrix type="matrix" values="0 0 0 0 0.069375 0 0 0 0 0.45 0 0 0 0 0.42761 0 0 0 0.25 0"/>
<feBlend mode="normal" in2="BackgroundImageFix" result="effect1_dropShadow_20_34"/>
<feBlend mode="normal" in="SourceGraphic" in2="effect1_dropShadow_20_34" result="shape"/>
</filter>
</defs>
</svg>
